<svg preserveAspectRatio="none" width="100%" height="100%" overflow="visible" style="display: block;" viewBox="0 0 16 21" fill="none" xmlns="http://www.w3.org/2000/svg">
<path id="Vector" d="M15.2691 8.0896C15.5876 5.97495 13.9662 4.83862 11.7496 4.08033L12.4684 1.21622L10.7131 0.781683L10.0129 3.57032C9.55089 3.456 9.07733 3.3483 8.606 3.24171L9.31067 0.434538L7.55644 0L6.83667 2.86367C6.45467 2.77716 6.07978 2.69197 5.71556 2.60193L5.71733 2.5931L3.29644 1.99283L2.82933 3.85479C2.82933 3.85479 4.13178 4.15117 4.10422 4.16971C4.81533 4.34604 4.94356 4.81324 4.92222 5.18356L4.10333 8.44646C4.15222 8.45904 4.21556 8.47647 4.28578 8.50472C4.22711 8.49015 4.16467 8.47448 4.10044 8.45904L2.95244 13.0295C2.86533 13.244 2.64467 13.566 2.14778 13.4438C2.16533 13.4689 0.871111 13.1275 0.871111 13.1275L0 15.1228L2.28444 15.6884C2.70911 15.7941 3.12622 15.9044 3.536 16.009L2.81 18.906L4.56356 19.3406L5.28289 16.4745C5.76244 16.6034 6.22733 16.7228 6.68244 16.8351L5.96556 19.6877L7.72111 20.1223L8.44778 17.2308C11.4418 17.7931 13.6931 17.5662 14.6402 14.8776C15.404 12.7126 14.6024 11.4637 13.0273 10.6492C14.1742 10.3865 15.0387 9.63708 15.2691 8.0896ZM11.2582 13.6755C10.7151 15.8407 7.04489 14.6701 5.85422 14.3764L6.81822 10.5388C8.00822 10.8334 11.8249 11.4174 11.2582 13.6755ZM11.8004 8.05848C11.3058 10.0279 8.25045 9.02709 7.25933 8.78168L8.13311 5.30097C9.124 5.54637 12.3162 6.0043 11.8004 8.05848Z" fill="var(--fill-0, white)"/>
</svg>
