<svg preserveAspectRatio="none" width="100%" height="100%" overflow="visible" style="display: block;" viewBox="0 0 13 22" fill="none" xmlns="http://www.w3.org/2000/svg">
<path id="Vector" d="M8 22H4C3.4 22 3 21.6 3 21V14H1C0.4 14 0 13.6 0 13V9C0 8.4 0.4 8 1 8H3V6C3 2.7 5.7 0 9 0H12C12.6 0 13 0.4 13 1V5C13 5.6 12.6 6 12 6H9V8H12C12.3 8 12.6 8.1 12.8 8.4C13 8.7 13 8.9 13 9.2L12 13.2C11.9 13.6 11.5 14 11 14H9V21C9 21.6 8.6 22 8 22ZM5 20H7V13C7 12.4 7.4 12 8 12H10.2L10.7 10H8C7.4 10 7 9.6 7 9V6C7 4.9 7.9 4 9 4H11V2H9C6.8 2 5 3.8 5 6V9C5 9.6 4.6 10 4 10H2V12H4C4.6 12 5 12.4 5 13V20Z" fill="var(--fill-0, #F5F5F5)"/>
</svg>
